<svg width="32" height="32" viewBox="0 0 32 32" fill="none" xmlns="http://www.w3.org/2000/svg">
  <defs>
    <linearGradient id="gradient" x1="0%" y1="0%" x2="100%" y2="100%">
      <stop offset="0%" style="stop-color:#3B82F6;stop-opacity:1" />
      <stop offset="100%" style="stop-color:#6366F1;stop-opacity:1" />
    </linearGradient>
  </defs>
  <circle cx="16" cy="16" r="15" fill="url(#gradient)" stroke="#E5E7EB" stroke-width="1"/>
  <path d="M16 6c-2.2 0-4 1.8-4 4v6c0 2.2 1.8 4 4 4s4-1.8 4-4v-6c0-2.2-1.8-4-4-4z" fill="white"/>
  <path d="M24 14v2c0 4.4-3.6 8-8 8s-8-3.6-8-8v-2h2v2c0 3.3 2.7 6 6 6s6-2.7 6-6v-2h2z" fill="white"/>
  <rect x="15" y="24" width="2" height="4" fill="white"/>
  <rect x="11" y="26" width="10" height="2" fill="white"/>
</svg> 